<svg width="19" height="20" viewBox="0 0 19 20" fill="none" xmlns="http://www.w3.org/2000/svg">
<mask id="mask0_30_812" style="mask-type:alpha" maskUnits="userSpaceOnUse" x="0" y="0" width="19" height="20">
<rect width="18.9602" height="18.9602" rx="1" transform="matrix(1 0 0 -1 0.0321045 19.0225)" fill="#D9D9D9"/>
</mask>
<g mask="url(#mask0_30_812)">
<path d="M2.6012 8.94775C2.04891 8.94775 1.6012 9.39547 1.6012 9.94775C1.6012 10.5 2.04891 10.9478 2.6012 10.9478V9.94775V8.94775ZM17.1699 10.6549C17.5604 10.2643 17.5604 9.63117 17.1699 9.24065L10.8059 2.87669C10.4154 2.48616 9.78223 2.48616 9.3917 2.87669C9.00118 3.26721 9.00118 3.90038 9.3917 4.2909L15.0486 9.94775L9.3917 15.6046C9.00118 15.9951 9.00118 16.6283 9.3917 17.0188C9.78223 17.4093 10.4154 17.4093 10.8059 17.0188L17.1699 10.6549ZM2.6012 9.94775V10.9478H16.4628V9.94775V8.94775H2.6012V9.94775Z" fill="#C56F3E"/>
</g>
</svg>
