<svg width="256" height="257" viewBox="0 0 256 257" fill="none" xmlns="http://www.w3.org/2000/svg">
<path d="M85.5342 8.21045C92.585 1.48681 96.2137 -0.107549 100.789 0.932129C103.805 1.61755 134.842 16.6092 155.703 26.771C155.703 26.771 165.341 31.5592 169.512 29.3657C177.621 25.1028 185.161 21.1302 190.475 18.3208C197.473 14.6281 207.17 27.4202 214.185 33.1597L214.182 33.1626C224.518 41.6202 251.213 59.3698 255.821 62.4204V246.161C255.821 251.683 251.344 256.16 245.821 256.161H10.3027C4.78003 256.161 0.301993 251.683 0.301758 246.161V41.2681C2.70541 39.733 11.6967 34.1212 13.5713 34.7144C15.7399 35.3989 29.8905 43.7287 39.959 40.437C46.0726 38.4391 77.0593 16.2867 85.5342 8.21045Z" fill="#6EA5A5"/>
<mask id="mask0_289_632" style="mask-type:alpha" maskUnits="userSpaceOnUse" x="0" y="0" width="256" height="257">
<path d="M85.5332 8.21069C92.5841 1.487 96.2127 -0.107309 100.788 0.932373C103.804 1.61789 134.841 16.6095 155.702 26.7712C155.702 26.7712 165.34 31.5594 169.511 29.366C177.62 25.103 185.16 21.1295 190.474 18.3201C197.472 14.6274 207.169 27.4205 214.184 33.1599L214.181 33.1628C224.517 41.6205 251.212 59.3701 255.82 62.4207V246.16C255.82 251.683 251.343 256.16 245.82 256.16H10.3018C4.77891 256.16 0.301758 251.683 0.301758 246.16V41.2683C2.70604 39.7328 11.6958 34.1215 13.5703 34.7146C15.7391 35.3992 29.8896 43.7288 39.958 40.4373C46.0716 38.4394 77.0584 16.287 85.5332 8.21069Z" fill="#6EA5A5"/>
</mask>
<g mask="url(#mask0_289_632)">
<path d="M103.418 265.39C54.2262 243.891 7.31205 264.934 -9.99609 278.143V550.518H266.934V266.301C233.228 243.527 164.907 292.263 103.418 265.39Z" fill="#527338"/>
</g>
<path d="M211.707 222.047C211.707 216.525 216.184 212.047 221.707 212.047H255.819V246.159C255.819 251.682 251.342 256.159 245.819 256.159H211.707V222.047Z" fill="#C1DFB7"/>
<path d="M226.111 233.758C225.421 233.758 224.861 234.317 224.861 235.008C224.861 235.698 225.421 236.258 226.111 236.258L226.111 235.008L226.111 233.758ZM244.502 235.892C244.99 235.403 244.99 234.612 244.502 234.124L236.547 226.169C236.058 225.681 235.267 225.681 234.779 226.169C234.291 226.657 234.291 227.448 234.779 227.937L241.85 235.008L234.779 242.079C234.291 242.567 234.291 243.358 234.779 243.847C235.267 244.335 236.058 244.335 236.547 243.847L244.502 235.892ZM226.111 235.008L226.111 236.258L243.618 236.258L243.618 235.008L243.618 233.758L226.111 233.758L226.111 235.008Z" fill="#6EA5A5"/>
<g clip-path="url(#clip0_289_632)">
<path d="M119.12 129.803C117.162 129.073 115.07 128.64 113.215 127.715C111.513 126.865 109.78 125.769 108.535 124.359C106.542 122.1 104.773 119.594 103.209 117.009C99.2584 110.465 87.5077 110.409 83.2179 114.634C79.1369 118.657 74.792 122.402 70.7385 126.452C69.6001 127.592 68.7453 129.279 68.3514 130.864C67.4651 134.434 66.9096 138.095 66.2872 141.728C65.6924 145.211 67.3114 147.617 70.5967 148.261C73.3345 148.797 75.9225 146.732 76.5607 143.547C77.1673 140.513 77.7621 137.475 78.4673 134.465C78.9321 132.48 81.3232 130.32 83.1864 130.153C83.2061 130.558 83.2652 130.82 83.2219 131.066C81.8432 138.786 80.5117 146.513 79.0266 154.209C78.7115 155.837 78.097 157.521 77.187 158.891C74.8196 162.457 72.1842 165.836 69.7104 169.335C67.3981 172.607 67.9456 176.26 70.9867 178.353C74.0041 180.426 77.6361 179.627 79.8893 176.399C82.6783 172.4 85.5342 168.449 88.2404 164.395C89.1701 162.997 89.9185 161.417 90.4346 159.816C91.183 157.497 91.6439 155.087 92.2505 152.609C94.0074 154.61 95.7919 156.461 97.3479 158.486C98.2696 159.685 99.085 161.095 99.5065 162.54C100.629 166.388 101.492 170.312 102.496 174.199C103.525 178.182 106.644 180.219 110.233 179.302C113.763 178.4 115.508 175.013 114.499 171.026C113.436 166.817 112.514 162.564 111.245 158.414C110.631 156.401 109.611 154.396 108.338 152.728C106.227 149.956 103.82 147.399 101.413 144.873C100.33 143.734 100.062 142.709 100.48 141.172C100.996 139.278 101.086 137.273 101.449 135.331C101.586 134.589 101.969 133.898 102.142 133.429C104.293 134.64 106.026 135.839 107.921 136.626C110.513 137.698 113.223 138.48 115.894 139.35C118.872 140.319 121.566 139.115 122.488 136.451C123.445 133.679 122.07 130.915 119.116 129.815L119.12 129.803Z" fill="#F9F5EB"/>
<path d="M95.9025 108.706C103.639 108.722 109.666 102.9 109.631 95.4505C109.595 88.136 103.596 82.108 96.3437 82.0961C88.7725 82.0842 82.8086 87.9017 82.8086 95.3036C82.8086 102.809 88.5559 108.694 95.9025 108.706Z" fill="#F9F5EB"/>
<path d="M185.846 106.271H172.264C174.084 103.706 175.159 100.565 175.159 97.1739C175.159 88.5291 168.206 81.5203 159.631 81.5203C151.055 81.5203 144.102 88.5291 144.102 97.1739C144.102 100.569 145.178 103.706 146.998 106.271H133.415C131.146 106.271 129.307 108.126 129.307 110.413V157.001C129.307 159.288 131.146 161.143 133.415 161.143H148.148V139.663C148.148 136.375 150.791 133.707 154.057 133.707H164.858C168.12 133.707 170.767 136.372 170.767 139.663V161.143H185.846C188.115 161.143 189.955 159.288 189.955 157.001V110.413C189.955 108.126 188.115 106.271 185.846 106.271ZM151.157 95.8516C151.157 95.4584 151.476 95.1368 151.866 95.1368H157.61V89.3471C157.61 88.954 157.929 88.6323 158.319 88.6323H161.104C161.494 88.6323 161.813 88.954 161.813 89.3471V95.1368H167.556C167.946 95.1368 168.265 95.4584 168.265 95.8516V98.659C168.265 99.0522 167.946 99.3738 167.556 99.3738H161.813V105.164C161.813 105.557 161.494 105.878 161.104 105.878H158.319C157.929 105.878 157.61 105.557 157.61 105.164V99.3738H151.866C151.476 99.3738 151.157 99.0522 151.157 98.659V95.8516Z" fill="#F9F5EB"/>
</g>
<path d="M13.7365 228.134H19.1365V229.25L17.5705 229.484L19.8385 237.602L20.2525 239.6L20.6665 237.602L22.5925 231.014L22.0885 229.484L20.9005 229.25V228.134H26.5345V229.25L24.8065 229.484L27.0565 237.602L27.5425 239.762L27.9205 237.602L29.9725 229.484L28.3525 229.25V228.134H32.6905V229.25L31.5385 229.484L28.1185 241.598H25.7425L23.2585 233.192L20.8825 241.598H18.5425L14.8345 229.502L13.7365 229.25V228.134ZM32.9714 238.7C32.9714 237.608 33.5174 236.786 34.6094 236.234C35.7134 235.682 37.1354 235.4 38.8754 235.388V234.974C38.8754 234.482 38.8214 234.098 38.7134 233.822C38.6174 233.546 38.4314 233.342 38.1554 233.21C37.8914 233.066 37.5014 232.994 36.9854 232.994C36.3974 232.994 35.8694 233.072 35.4014 233.228C34.9334 233.372 34.4474 233.564 33.9434 233.804L33.3854 232.652C33.5654 232.496 33.8654 232.31 34.2854 232.094C34.7174 231.878 35.2274 231.692 35.8154 231.536C36.4034 231.368 37.0094 231.284 37.6334 231.284C38.5574 231.284 39.2774 231.404 39.7934 231.644C40.3214 231.884 40.6994 232.268 40.9274 232.796C41.1554 233.324 41.2694 234.032 41.2694 234.92V240.428H42.2414V241.436C42.0014 241.496 41.6594 241.556 41.2154 241.616C40.7714 241.676 40.3814 241.706 40.0454 241.706C39.6374 241.706 39.3614 241.646 39.2174 241.526C39.0854 241.406 39.0194 241.16 39.0194 240.788V240.302C38.6954 240.662 38.2754 240.986 37.7594 241.274C37.2434 241.562 36.6614 241.706 36.0134 241.706C35.4614 241.706 34.9514 241.592 34.4834 241.364C34.0274 241.124 33.6614 240.782 33.3854 240.338C33.1094 239.882 32.9714 239.336 32.9714 238.7ZM37.1654 240.212C37.4174 240.212 37.7054 240.14 38.0294 239.996C38.3534 239.84 38.6354 239.654 38.8754 239.438V236.486C37.7954 236.486 36.9854 236.672 36.4454 237.044C35.9174 237.404 35.6534 237.872 35.6534 238.448C35.6534 239.024 35.7854 239.462 36.0494 239.762C36.3254 240.062 36.6974 240.212 37.1654 240.212ZM44.4087 228.35L43.0767 228.116V227.144L46.4067 226.748H46.4427L46.9287 227.09V240.284L48.2427 240.428V241.508H43.1487V240.428L44.4087 240.266V228.35ZM50.3099 228.35L49.0139 228.116V227.144L52.3259 226.748H52.3619L52.8479 227.09V235.64L52.7939 236.594L56.4659 232.742L55.1339 232.544V231.518H59.8319V232.544L58.3739 232.778L56.1599 234.902L59.3099 240.284L60.2999 240.428V241.508H55.5479V240.428L56.4659 240.266L54.4139 236.468L52.7939 238.106L52.8299 239.024V240.266L53.9639 240.428V241.508H49.2659V240.428L50.3099 240.266V228.35ZM69.3342 236.594H62.0082V234.902H69.3342V236.594ZM73.7057 229.484L72.1757 229.25V228.134H77.9357V229.25L76.3517 229.484V240.248L77.9357 240.446V241.508H72.1757V240.428L73.7057 240.248V229.484ZM80.566 233.21L79.414 232.886V231.644L82.402 231.266H82.456L82.906 231.626V232.328L82.888 232.76C83.308 232.364 83.854 232.022 84.526 231.734C85.198 231.446 85.876 231.302 86.56 231.302C87.292 231.302 87.862 231.44 88.27 231.716C88.69 231.98 88.99 232.4 89.17 232.976C89.35 233.552 89.44 234.332 89.44 235.316V240.284L90.538 240.428V241.508H85.894V240.428L86.866 240.284V235.316C86.866 234.692 86.824 234.206 86.74 233.858C86.656 233.498 86.5 233.24 86.272 233.084C86.056 232.916 85.744 232.832 85.336 232.832C84.652 232.832 83.92 233.126 83.14 233.714V240.266L84.22 240.428V241.508H79.522V240.428L80.566 240.266V233.21ZM102.093 241.706C100.053 241.706 98.4935 241.1 97.4135 239.888C96.3335 238.664 95.7935 236.996 95.7935 234.884C95.7935 233.492 96.0755 232.28 96.6395 231.248C97.2155 230.204 98.0015 229.4 98.9975 228.836C99.9935 228.272 101.121 227.99 102.381 227.99C102.909 227.99 103.419 228.026 103.911 228.098C104.403 228.158 104.985 228.242 105.657 228.35C106.161 228.434 106.437 228.476 106.485 228.476L106.287 232.184H104.631L104.073 229.61C103.941 229.478 103.713 229.37 103.389 229.286C103.065 229.202 102.651 229.16 102.147 229.16C101.127 229.16 100.305 229.634 99.6815 230.582C99.0695 231.518 98.7635 232.88 98.7635 234.668C98.7635 236.396 99.0575 237.806 99.6455 238.898C100.233 239.99 101.091 240.536 102.219 240.536C102.759 240.536 103.173 240.488 103.461 240.392C103.761 240.284 104.013 240.134 104.217 239.942L105.009 238.088L106.521 238.232L106.161 241.022C105.909 241.046 105.657 241.094 105.405 241.166C105.165 241.226 105.015 241.262 104.955 241.274C104.475 241.406 104.025 241.508 103.605 241.58C103.197 241.664 102.693 241.706 102.093 241.706ZM108.973 228.35L107.641 228.116V227.144L110.971 226.748H111.007L111.493 227.09V240.284L112.807 240.428V241.508H107.713V240.428L108.973 240.266V228.35ZM116.188 229.862C115.756 229.862 115.414 229.736 115.162 229.484C114.91 229.232 114.784 228.908 114.784 228.512C114.784 228.056 114.928 227.678 115.216 227.378C115.504 227.078 115.888 226.928 116.368 226.928C116.848 226.928 117.214 227.06 117.466 227.324C117.718 227.576 117.844 227.894 117.844 228.278C117.844 228.758 117.7 229.142 117.412 229.43C117.124 229.718 116.722 229.862 116.206 229.862H116.188ZM115.234 233.21L113.956 232.868V231.662L117.25 231.266H117.286L117.79 231.626V240.284L118.996 240.428V241.508H113.974V240.428L115.234 240.266V233.21ZM121.295 233.21L120.143 232.886V231.644L123.131 231.266H123.185L123.635 231.626V232.328L123.617 232.76C124.037 232.364 124.583 232.022 125.255 231.734C125.927 231.446 126.605 231.302 127.289 231.302C128.021 231.302 128.591 231.44 128.999 231.716C129.419 231.98 129.719 232.4 129.899 232.976C130.079 233.552 130.169 234.332 130.169 235.316V240.284L131.267 240.428V241.508H126.623V240.428L127.595 240.284V235.316C127.595 234.692 127.553 234.206 127.469 233.858C127.385 233.498 127.229 233.24 127.001 233.084C126.785 232.916 126.473 232.832 126.065 232.832C125.381 232.832 124.649 233.126 123.869 233.714V240.266L124.949 240.428V241.508H120.251V240.428L121.295 240.266V233.21ZM134.681 229.862C134.249 229.862 133.907 229.736 133.655 229.484C133.403 229.232 133.277 228.908 133.277 228.512C133.277 228.056 133.421 227.678 133.709 227.378C133.997 227.078 134.381 226.928 134.861 226.928C135.341 226.928 135.707 227.06 135.959 227.324C136.211 227.576 136.337 227.894 136.337 228.278C136.337 228.758 136.193 229.142 135.905 229.43C135.617 229.718 135.215 229.862 134.699 229.862H134.681ZM133.727 233.21L132.449 232.868V231.662L135.743 231.266H135.779L136.283 231.626V240.284L137.489 240.428V241.508H132.467V240.428L133.727 240.266V233.21ZM138.545 236.558C138.545 235.526 138.749 234.608 139.157 233.804C139.577 233 140.171 232.376 140.939 231.932C141.719 231.476 142.625 231.248 143.657 231.248C144.137 231.248 144.551 231.284 144.899 231.356C145.247 231.428 145.637 231.524 146.069 231.644L146.591 231.788L146.483 234.866H144.917L144.467 232.886C144.395 232.574 144.041 232.418 143.405 232.418C142.733 232.418 142.205 232.712 141.821 233.3C141.449 233.888 141.257 234.806 141.245 236.054C141.245 237.374 141.473 238.388 141.929 239.096C142.385 239.792 142.991 240.14 143.747 240.14C144.659 240.14 145.499 239.894 146.267 239.402L146.681 240.338C146.369 240.674 145.889 240.986 145.241 241.274C144.605 241.562 143.915 241.706 143.171 241.706C141.635 241.706 140.477 241.232 139.697 240.284C138.929 239.336 138.545 238.094 138.545 236.558Z" fill="#F9F5EB"/>
<defs>
<clipPath id="clip0_289_632">
<rect width="123.789" height="98" fill="white" transform="translate(66.166 81.5162)"/>
</clipPath>
</defs>
</svg>
