<?xml version="1.0" encoding="UTF-8"?>
<svg id="Layer_1" xmlns="http://www.w3.org/2000/svg" version="1.1" viewBox="0 0 45 45">
  <!-- Generator: Adobe Illustrator 29.1.0, SVG Export Plug-In . SVG Version: 2.1.0 Build 142)  -->
  <defs>
    <style>
      .st0 {
        fill: #537338;
      }
    </style>
  </defs>
  <path class="st0" d="M4.5,19.3c-1.4,0-2.5,1.1-2.5,2.5s1.1,2.5,2.5,2.5v-5.1h0ZM42,23.7c1-1,1-2.6,0-3.6L25.8,3.9c-1-1-2.6-1-3.6,0s-1,2.6,0,3.6l14.4,14.4-14.4,14.4c-1,1-1,2.6,0,3.6s2.6,1,3.6,0c0,0,16.2-16.2,16.2-16.2ZM4.5,21.9v2.5h35.6v-5.1H4.5v2.5h0Z"/>
</svg>