<?xml version="1.0" encoding="UTF-8"?>
<svg id="Layer_2" xmlns="http://www.w3.org/2000/svg" version="1.1" viewBox="0 0 256 62.5">
  <!-- Generator: Adobe Illustrator 29.1.0, SVG Export Plug-In . SVG Version: 2.1.0 Build 142)  -->
  <defs>
    <style>
      .st0 {
        fill: #fff;
      }
    </style>
  </defs>
  <path class="st0" d="M256,62.4s-28.8-20.4-36.8-26.5-9.9-7.4-14.2-11.5-5.5-4.4-5.5-4.4c-1.2-.8-3.3-1.9-5.2-2.2s-3.2.4-4.3.9c-3.6,1.8-8.2,4.4-13,6.9s-5,2.8-8.2,4.1-11.3-2.2-11.3-2.2l-32.2-15.5-21-9.7c-1.9-.7-3.5-1.7-6.2-1.6s-3.4.3-7.4,3.3-7.1,6.5-12.1,10.5-8.4,6.4-12.4,9.3c-10.2,7.4-20.3,13.8-22.2,14.9-4.5,2.6-7.6,2.7-10.6,2.6s-3.8-.4-5.9-1-3.5-1.1-4.9-1.6-2.4-.9-3.6-1.5-2.5-1.1-3.4-1.6-1.6-.9-2.1-.9c-1,0-2.6.7-3.3,1.1-1.9.9-4,2.2-4.6,2.5-1,.5-5.5,3.3-5.5,3.3V0h255.8v62.4Z"/>
</svg>