<svg width="27" height="27" viewBox="0 0 27 27" fill="none" xmlns="http://www.w3.org/2000/svg">
<g clip-path="url(#clip0_258_1506)">
<path d="M13.9854 0.0198499C6.60556 -0.119388 0.746854 5.68175 0.638011 13.0105C0.535887 20.0166 6.4994 26.0962 13.593 26.0172C20.6503 26.0868 26.634 20.2937 26.6367 13.0332C26.6394 5.64292 20.5186 0.143022 13.9854 0.0198499ZM13.5527 23.2338C7.98289 23.1722 3.41552 18.5854 3.47061 13.1082C3.52974 7.26156 8.06351 2.7457 13.8013 2.818C19.3523 2.88762 23.8739 7.52531 23.8188 13.0935C23.7624 18.7822 19.1924 23.2967 13.5527 23.2351V23.2338Z" fill="#C56F3E"/>
<path d="M5.44146 13.6798C5.76726 13.6798 6.03137 13.4167 6.03137 13.0921C6.03137 12.7675 5.76726 12.5043 5.44146 12.5043C5.11567 12.5043 4.85156 12.7675 4.85156 13.0921C4.85156 13.4167 5.11567 13.6798 5.44146 13.6798Z" fill="#C56F3E"/>
<path d="M13.712 20.8773C13.3854 20.8773 13.1221 21.1411 13.1221 21.4651C13.1221 21.7891 13.3868 22.0528 13.712 22.0528C14.0372 22.0528 14.3019 21.7891 14.3019 21.4651C14.3019 21.1411 14.0372 20.8773 13.712 20.8773Z" fill="#C56F3E"/>
<path d="M15.3686 13.0224C15.3686 12.2995 14.9413 11.6783 14.3272 11.3891L13.5559 3.9693L12.7846 11.3891C12.1691 11.6783 11.7432 12.2995 11.7432 13.0224C11.7432 14.0199 12.5548 14.8285 13.5559 14.8285C13.8125 14.8285 14.0557 14.775 14.2761 14.6799L18.4955 17.6936L15.253 13.6517C15.3269 13.4562 15.3686 13.2447 15.3686 13.0224Z" fill="#C56F3E"/>
</g>
<defs>
<clipPath id="clip0_258_1506">
<rect width="26" height="26" fill="white" transform="translate(0.638672 0.0170898)"/>
</clipPath>
</defs>
</svg>
