<svg width="17" height="18" viewBox="0 0 17 18" fill="none" xmlns="http://www.w3.org/2000/svg">
<path d="M9.11328 1.22253C9.11328 0.808321 8.77749 0.472534 8.36328 0.472534C7.94907 0.472534 7.61328 0.808321 7.61328 1.22253L8.36328 1.22253L9.11328 1.22253ZM7.83295 13.6724C8.12584 13.9653 8.60072 13.9653 8.89361 13.6724L13.6666 8.89942C13.9595 8.60653 13.9595 8.13165 13.6666 7.83876C13.3737 7.54587 12.8988 7.54587 12.6059 7.83876L8.36328 12.0814L4.12064 7.83876C3.82775 7.54587 3.35287 7.54587 3.05998 7.83876C2.76709 8.13165 2.76709 8.60653 3.05998 8.89942L7.83295 13.6724ZM8.36328 1.22253L7.61328 1.22253L7.61328 13.1421L8.36328 13.1421L9.11328 13.1421L9.11328 1.22253L8.36328 1.22253Z" fill="white"/>
<line x1="0.978516" y1="16.9557" x2="15.7474" y2="16.9557" stroke="white" stroke-width="1.5" stroke-linecap="round"/>
</svg>
