<svg width="27" height="28" viewBox="0 0 27 28" fill="none" xmlns="http://www.w3.org/2000/svg">
<g clip-path="url(#clip0_258_1498)">
<path d="M14.5209 0.147031C13.6691 0.267332 13.5655 1.59785 14.4661 1.83639C14.7999 1.92482 15.1765 1.95978 15.5212 2.04615C19.9746 3.16485 23.8172 7.27773 24.8354 11.8739C24.9062 12.1916 24.957 12.79 25.1274 13.0337C25.5558 13.6445 26.5401 13.4141 26.6327 12.6666C26.6686 12.3808 26.5331 11.8266 26.4674 11.5294C25.3157 6.30915 20.9988 1.67394 15.9496 0.386606C15.5939 0.296122 14.8617 0.0987045 14.5209 0.147031ZM15.6188 19.7572C15.044 20.3032 14.6853 20.807 13.8375 20.3238C13.5675 20.1695 13.2586 19.931 13.0056 19.7418C11.025 18.2612 9.141 16.2777 7.69539 14.2439C7.28392 13.665 6.66922 12.9813 7.24108 12.2769C7.71332 11.697 8.3619 11.1623 8.81222 10.5711C9.16192 10.1115 9.15893 9.43288 9.05033 8.88792C8.75245 7.39083 8.21644 5.87832 7.89365 4.37918C7.52602 3.20495 6.66224 2.99314 5.58626 2.86461C4.4216 2.72478 3.87066 2.78853 2.91821 3.49491C1.3122 4.68559 0.562998 6.44076 0.644693 8.47149C0.836976 13.2465 3.19916 17.0119 6.30657 20.3443C8.29017 22.4717 10.5597 24.4181 13.1759 25.6541C16.1469 27.0576 19.5801 28.0529 22.4563 25.8494C23.1547 25.3147 23.9667 24.3924 24.1669 23.4958C24.3214 22.8038 24.0942 21.2769 23.7774 20.6374C23.3878 19.8518 23.0083 19.7387 22.2381 19.5074C20.9559 19.1228 19.6598 18.7866 18.3805 18.3959C17.0296 18.0843 16.4906 18.9305 15.6198 19.7572H15.6188ZM19.7634 7.13583C18.521 5.88758 17.0575 4.93031 15.4355 4.28664C15.1685 4.18073 14.8338 4.04295 14.5608 3.972C13.422 3.67382 13.0345 5.21306 14.0039 5.60173C14.2519 5.70147 14.5309 5.77036 14.7859 5.8701C17.6333 6.97338 20.0124 9.27864 21.0735 12.2471C21.1741 12.5278 21.2847 13.1016 21.4381 13.3113C21.9632 14.028 23.0929 13.5601 22.9315 12.6224C22.8787 12.3139 22.7164 11.879 22.6068 11.5777C21.997 9.90586 20.9978 8.37792 19.7624 7.13686L19.7634 7.13583ZM13.7149 7.98103C13.2128 8.04067 12.904 8.55992 13.0165 9.05552C13.1431 9.61076 13.6731 9.67039 14.0965 9.88838C15.2442 10.4796 16.4786 11.696 17.1043 12.8517C17.2408 13.1046 17.3265 13.3864 17.451 13.6301C17.8874 14.4804 19.2981 14.0218 18.9693 12.9155C18.5071 11.3628 16.7905 9.57374 15.4794 8.72546C15.0908 8.47355 14.1573 7.92756 13.7149 7.98103Z" fill="#C56F3E"/>
<path d="M15.6188 19.7573C16.4896 18.9306 17.0296 18.0844 18.3795 18.396C19.6598 18.7867 20.9559 19.1229 22.2371 19.5075C23.0083 19.7388 23.3868 19.8519 23.7764 20.6375C24.0932 21.276 24.3204 22.8039 24.1659 23.4959C23.9657 24.3925 23.1537 25.3148 22.4553 25.8495C19.5781 28.052 16.1449 27.0567 13.1749 25.6542C10.5587 24.4182 8.28917 22.4718 6.30557 20.3444C3.19916 17.012 0.836976 13.2466 0.644693 8.47159C0.562998 6.44086 1.3122 4.68569 2.91821 3.49398C3.87066 2.7876 4.4216 2.72488 5.58626 2.86369C6.66224 2.99221 7.52602 3.20506 7.89365 4.37825C8.21644 5.8774 8.75244 7.38991 9.05033 8.88699C9.15893 9.43195 9.16192 10.1116 8.81222 10.5702C8.36091 11.1624 7.71232 11.6961 7.24108 12.276C6.66922 12.9793 7.28492 13.6641 7.69539 14.243C9.141 16.2768 11.025 18.2602 13.0056 19.7409C13.2586 19.9301 13.5675 20.1696 13.8375 20.3228C14.6853 20.8061 15.044 20.3023 15.6188 19.7563V19.7573Z" fill="#C56F3E"/>
<path d="M14.5209 0.147153C14.8616 0.0988265 15.5939 0.296245 15.9495 0.386728C20.9987 1.67406 25.3146 6.30824 26.4673 11.5295C26.5331 11.8267 26.6686 12.3819 26.6327 12.6667C26.54 13.4143 25.5557 13.6446 25.1273 13.0338C24.9569 12.7901 24.9051 12.1917 24.8354 11.874C23.8182 7.27682 19.9745 3.16498 15.5211 2.04627C15.1764 1.9599 14.7998 1.92494 14.4661 1.83652C13.5654 1.59694 13.669 0.266426 14.5209 0.147153Z" fill="#C56F3E"/>
<path d="M19.7636 7.13591C21 8.37697 21.9982 9.90491 22.608 11.5768C22.7175 11.877 22.8799 12.312 22.9327 12.6215C23.0931 13.5602 21.9644 14.0281 21.4393 13.3104C21.2859 13.1006 21.1743 12.5269 21.0747 12.2462C20.0136 9.27769 17.6345 6.97243 14.7871 5.86915C14.5311 5.77044 14.2521 5.70052 14.005 5.60078C13.0357 5.21212 13.4232 3.67287 14.562 3.97105C14.835 4.04303 15.1697 4.17978 15.4367 4.28569C17.0587 4.92936 18.5212 5.88663 19.7646 7.13488L19.7636 7.13591Z" fill="#C56F3E"/>
<path d="M13.7147 7.98113C14.157 7.92766 15.0906 8.47468 15.4791 8.72556C16.7902 9.57384 18.5068 11.3629 18.9691 12.9156C19.2989 14.0209 17.8881 14.4805 17.4508 13.6302C17.3262 13.3865 17.2405 13.1047 17.104 12.8518C16.4784 11.6961 15.245 10.4787 14.0963 9.88848C13.6719 9.6705 13.1418 9.61086 13.0163 9.05562C12.9037 8.56002 13.2126 8.04077 13.7147 7.98113Z" fill="#C56F3E"/>
</g>
<defs>
<clipPath id="clip0_258_1498">
<rect width="26" height="27" fill="white" transform="translate(0.638672 0.139954)"/>
</clipPath>
</defs>
</svg>
