<svg width="27" height="29" viewBox="0 0 27 29" fill="none" xmlns="http://www.w3.org/2000/svg">
<g clip-path="url(#clip0_258_1492)">
<path d="M12.7568 20.0486C13.1931 20.6535 13.8533 20.6407 14.3402 20.0758C14.6204 19.7511 14.8747 19.4022 15.1174 19.0475C16.7846 16.6092 18.4936 14.198 20.0886 11.714C20.8412 10.5427 21.1966 9.16408 21.1201 7.76258C20.8427 2.64567 16.1749 0.0357271 12.5126 0.553425C8.85468 1.07112 5.95375 4.23022 5.96242 7.9013C5.9292 9.57595 6.45506 11.1119 7.37388 12.4676C9.11184 15.0318 10.9408 17.5359 12.7568 20.0486ZM13.5239 4.57488C15.4237 4.56916 16.8467 6.00784 16.8553 7.9442C16.864 9.76043 15.3471 11.2921 13.5326 11.2992C11.7397 11.3064 10.1809 9.76043 10.1722 7.96708C10.1636 6.10652 11.6718 4.5806 13.5253 4.57488H13.5239Z" fill="#C56F3E"/>
<path d="M26.627 13.8177C26.6227 12.9467 26.1792 12.6693 25.3528 12.9853C23.833 13.566 22.3031 14.1266 20.8078 14.7629C19.5206 15.3121 18.8127 16.5749 18.7506 17.7304C18.5584 21.2671 18.6812 24.8209 18.6812 28.4891C21.2354 27.4065 23.7044 26.3768 26.1531 25.2985C26.3843 25.197 26.6169 24.7966 26.6183 24.532C26.6472 20.961 26.6443 17.3886 26.6299 13.8177H26.627Z" fill="#C56F3E"/>
<path d="M8.22628 16.9681C7.60362 16.0085 6.92895 15.0804 6.31063 14.118C6.09537 13.7819 5.87722 13.7747 5.53917 13.872C4.18116 14.261 2.82605 14.6628 1.45071 14.9832C0.82805 15.1276 0.633017 15.4294 0.638796 16.0214C0.659022 17.8562 0.646019 19.6896 0.646019 21.5245H0.648909C0.648909 23.3593 0.646019 25.1927 0.650353 27.0275C0.651798 27.8169 0.864167 27.9842 1.59084 27.7383C3.67697 27.0304 5.75587 26.3024 7.84055 25.5945C8.25373 25.4544 8.44298 25.2513 8.43865 24.7751C8.4112 22.4168 8.43143 20.0586 8.41842 17.7004C8.41698 17.4544 8.35775 17.1727 8.22628 16.9696V16.9681Z" fill="#C56F3E"/>
<path d="M11.2139 20.9152C10.857 20.4662 10.4959 20.0214 10.0408 19.4537C10.0408 21.3714 10.0321 23.1076 10.0538 24.8423C10.0567 25.0368 10.1824 25.3443 10.3326 25.4043C12.5372 26.2996 14.7548 27.1605 17.0027 28.0429V19.518C16.526 20.0987 16.1605 20.5692 15.7675 21.0153C14.1466 22.853 12.725 22.8173 11.2139 20.9138V20.9152Z" fill="#C56F3E"/>
</g>
<defs>
<clipPath id="clip0_258_1492">
<rect width="26" height="28" fill="white" transform="translate(0.638672 0.489075)"/>
</clipPath>
</defs>
</svg>
