<svg width="24" height="24" viewBox="0 0 24 24" fill="none" xmlns="http://www.w3.org/2000/svg">
<path d="M20.7814 2.75664C20.7528 2.75754 20.7243 2.76004 20.696 2.76412H16.1964C16.0948 2.76269 15.9939 2.78146 15.8996 2.81934C15.8053 2.85722 15.7195 2.91347 15.6472 2.9848C15.5748 3.05613 15.5174 3.14114 15.4782 3.23487C15.439 3.3286 15.4188 3.42919 15.4188 3.53079C15.4188 3.63239 15.439 3.73298 15.4782 3.82671C15.5174 3.92044 15.5748 4.00545 15.6472 4.07678C15.7195 4.14811 15.8053 4.20436 15.8996 4.24224C15.9939 4.28012 16.0948 4.29889 16.1964 4.29746H18.9456L11.0543 12.1887C10.9807 12.2594 10.922 12.344 10.8815 12.4376C10.841 12.5313 10.8197 12.632 10.8186 12.734C10.8176 12.836 10.8369 12.9372 10.8755 13.0316C10.914 13.1261 10.971 13.2119 11.0431 13.284C11.1153 13.3561 11.2011 13.4131 11.2955 13.4517C11.3899 13.4902 11.4911 13.5096 11.5931 13.5085C11.6951 13.5075 11.7959 13.4861 11.8895 13.4456C11.9832 13.4052 12.0678 13.3464 12.1384 13.2728L20.0297 5.38157V8.13079C20.0282 8.23238 20.047 8.33325 20.0849 8.42752C20.1228 8.5218 20.179 8.6076 20.2504 8.67996C20.3217 8.75231 20.4067 8.80976 20.5004 8.84897C20.5942 8.88818 20.6948 8.90838 20.7964 8.90838C20.898 8.90838 20.9985 8.88818 21.0923 8.84897C21.186 8.80976 21.271 8.75231 21.3423 8.67996C21.4137 8.6076 21.4699 8.5218 21.5078 8.42752C21.5457 8.33325 21.5645 8.23238 21.563 8.13079V3.62812C21.5783 3.51774 21.5693 3.40536 21.5367 3.2988C21.5041 3.19224 21.4487 3.09407 21.3743 3.01111C21.2999 2.92816 21.2083 2.86242 21.1059 2.81847C21.0035 2.77452 20.8928 2.75342 20.7814 2.75664ZM5.46302 5.83079C4.62501 5.83079 3.92969 6.52611 3.92969 7.36412V18.8641C3.92969 19.7021 4.62501 20.3975 5.46302 20.3975H16.963C17.801 20.3975 18.4964 19.7021 18.4964 18.8641V11.1975V9.22089L16.963 10.7542V12.7308V18.8641H5.46302V7.36412H11.5964H13.1297H13.5729L15.1062 5.83079H13.1297H11.5964H5.46302Z" fill="white"/>
</svg>
