<svg width="206" height="207" viewBox="0 0 206 207" fill="none" xmlns="http://www.w3.org/2000/svg">
<path d="M204.511 140.435C203.941 136.98 203.082 133.61 202.073 130.014C201.102 126.446 200.009 122.644 198.982 118.297C197.544 112.251 196.685 107.012 196.18 102.318C195.676 97.6517 195.517 93.5489 195.517 89.8217C195.517 86.7986 195.639 84.029 195.723 81.3721C195.835 78.7246 195.956 76.1803 195.956 73.6642C195.956 69.8619 195.704 66.0595 194.742 62.06C193.789 58.0699 192.174 53.9296 189.531 49.4232C188.896 48.3435 187.962 46.7193 186.682 44.8228C184.777 41.9781 182.106 38.4762 178.557 35.0213C175.008 31.5663 170.563 28.1301 165.118 25.4544C161.476 23.6706 158.226 22.6379 155.125 22.0652C152.8 21.6333 150.596 21.4737 148.382 21.3798C145.086 21.2484 141.78 21.2672 137.848 20.9667C133.907 20.6757 129.256 20.0279 123.344 18.5445C119.991 17.6996 117.554 17.0048 115.481 16.3195C113.94 15.7937 112.567 15.2961 111.138 14.7234C108.971 13.8503 106.627 12.8457 103.368 11.5126C100.118 10.1888 95.9523 8.53642 90.0967 6.4334C84.5586 4.44305 79.6648 2.86579 75.0886 1.76734C70.5405 0.687665 66.3005 0.0961914 62.1539 0.0961914C59.2401 0.0961914 56.373 0.387234 53.5245 0.988095C49.2285 1.89878 44.9698 3.5042 40.4123 5.76682C35.8548 8.05761 31.0358 11.015 25.5631 14.6765C21.4445 17.4461 17.8209 20.7884 14.7296 24.4968C10.0787 30.0548 6.59522 36.4859 4.2791 43.2456C1.95365 49.9959 0.767578 57.0466 0.767578 63.9377C0.767578 69.5896 1.57075 75.1006 3.2051 80.2549C4.84879 85.4091 7.32367 90.1691 10.7418 94.1967C16.8029 101.379 20.081 108.223 21.8741 113.856C23.6579 119.489 23.9474 123.902 23.9474 126.146C23.9474 126.718 23.9287 127.16 23.9007 127.432C23.9007 127.573 23.882 127.657 23.882 127.704V127.798C23.6952 129.582 23.4991 132.333 23.4991 135.675C23.4991 140.867 23.9941 147.533 26.0207 154.461C27.02 157.916 28.4395 161.465 30.326 164.901C32.2406 168.337 34.6501 171.652 37.7226 174.675C40.2536 177.172 42.8032 179.05 45.306 180.58C47.8089 182.11 50.2932 183.303 52.684 184.476C57.8299 186.964 62.4808 188.222 66.7768 188.842C70.0175 189.302 73.0434 189.415 75.9292 189.461C78.1239 189.508 80.2158 189.508 82.3358 189.574C85.4925 189.687 88.6584 189.94 92.1233 190.701C95.5881 191.452 99.3424 192.691 103.685 194.794C107.58 196.7 111.595 198.775 116.004 200.606C120.421 202.446 125.277 204.042 130.787 204.962C132.198 205.187 134.084 205.488 136.344 205.741C138.595 205.985 141.191 206.173 144.058 206.173C147.794 206.173 152.006 205.854 156.451 204.934C160.906 204.023 165.604 202.483 170.357 200.061C176.306 197.019 180.948 193.283 184.572 189.668C186.365 187.856 187.934 186.072 189.26 184.448C190.605 182.805 191.716 181.294 192.65 180.035C193.313 179.115 194.2 177.904 195.181 176.458C198.113 172.065 201.989 165.427 203.969 157.184C204.791 153.729 205.155 150.499 205.155 147.439C205.108 145.082 204.875 142.744 204.511 140.435ZM196.731 155.541C195.611 160.188 193.743 164.357 191.828 167.812C190.876 169.53 189.895 171.079 189.008 172.384C188.121 173.717 187.299 174.815 186.664 175.707C185.748 176.937 184.702 178.336 183.498 179.848C179.855 184.317 174.681 189.602 166.967 193.536C162.867 195.639 158.796 196.972 154.92 197.77C151.053 198.568 147.336 198.869 144.012 198.869C141.462 198.869 139.118 198.709 137.091 198.484C135.046 198.249 133.309 197.977 131.927 197.751C127.098 196.972 122.858 195.573 118.787 193.883C114.733 192.184 110.858 190.194 106.879 188.25C101.136 185.434 96.0644 183.922 91.4415 183.143C87.9767 182.552 84.792 182.345 81.7848 182.279C79.5341 182.204 77.3861 182.204 75.3221 182.157C72.2028 182.092 69.1956 181.932 66.0483 181.34C62.9104 180.74 59.6043 179.735 55.8313 177.904C53.4124 176.74 51.1804 175.66 49.0604 174.355C46.9497 173.05 44.9231 171.567 42.8218 169.502C40.3003 167.004 38.2923 164.263 36.7047 161.399C34.3139 157.099 32.8102 152.471 31.9417 148.03C31.0732 143.589 30.8023 139.336 30.8023 135.806C30.8023 132.783 30.9891 130.295 31.1666 128.671C31.1946 128.436 31.2786 127.61 31.2786 126.268C31.2786 123.376 30.9144 118.203 28.8691 111.706C26.8145 105.228 23.0602 97.4452 16.3453 89.5025C13.6556 86.301 11.5823 82.433 10.2188 78.0768C8.82728 73.7581 8.14552 68.9699 8.14552 64.0222C8.14552 55.9669 10.0133 47.4985 13.6369 39.922C15.4581 36.1197 17.7088 32.5521 20.3985 29.3506C23.0882 26.1398 26.1608 23.2857 29.663 20.9198C36.7701 16.1411 42.551 12.7706 47.6969 10.6488C50.2745 9.56915 52.684 8.81807 55.0561 8.3111C57.4189 7.80412 59.7444 7.57879 62.1539 7.57879C65.6001 7.57879 69.2423 8.05761 73.3796 9.06217C77.5262 10.048 82.1957 11.5407 87.5938 13.4841C92.7116 15.3431 96.494 16.8077 99.5012 18.0188C101.752 18.9294 103.601 19.6899 105.235 20.394C107.72 21.4268 109.84 22.2999 112.324 23.1636C114.799 24.0368 117.629 24.863 121.542 25.8487C127.164 27.2382 131.815 27.9705 135.793 28.3367C138.782 28.6183 141.397 28.7028 143.722 28.7779C145.469 28.8249 147.066 28.8437 148.569 28.9094C150.82 29.022 152.847 29.2098 154.948 29.6886C157.04 30.1674 159.244 30.9279 161.868 32.2047C168.041 35.2278 172.748 39.462 176.26 43.4427C178.006 45.4425 179.426 47.3859 180.556 49.0758C181.695 50.7751 182.545 52.2115 183.152 53.2443C185.459 57.225 186.776 60.6424 187.551 63.8626C188.326 67.111 188.55 70.2562 188.55 73.7299C188.55 76.0207 188.438 78.4711 188.345 81.1468C188.233 83.8225 188.121 86.7048 188.121 89.8874C188.121 93.8306 188.279 98.2244 188.83 103.191C189.372 108.176 190.287 113.744 191.781 120.062C193.22 126.127 194.742 131.075 195.863 135.44C196.432 137.637 196.89 139.674 197.208 141.665C197.525 143.655 197.703 145.58 197.703 147.551C197.731 150.021 197.432 152.612 196.731 155.541Z" fill="#A9C7D6"/>
<path d="M179.492 129.441C178.446 126.512 177.166 124.024 175.849 121.846C174.85 120.222 173.823 118.757 172.861 117.424C171.404 115.434 170.106 113.697 169.172 112.073C168.695 111.275 168.313 110.467 168.014 109.688C167.715 108.909 167.491 108.139 167.351 107.313C166.968 104.797 166.828 101.905 166.828 98.8443C166.828 96.2061 166.921 93.4647 167.033 90.7139C167.126 87.9443 167.239 85.1559 167.239 82.4332C167.239 79.0628 167.08 75.7956 166.538 72.7256C166.015 69.8809 164.988 66.9986 163.503 64.1821C161.271 59.9761 158.021 55.9202 153.781 52.6906C151.67 51.0946 149.298 49.6957 146.702 48.6254C144.105 47.5457 141.285 46.7665 138.259 46.4191C135.112 46.053 132.086 45.9685 129.144 45.9685C126.202 45.9685 123.55 46.053 120.907 46.0342C116.984 46.0342 113.342 45.8464 109.933 45.0766C108.224 44.6822 106.581 44.1565 104.965 43.4242C103.349 42.6919 101.752 41.753 100.165 40.5138C94.4024 36.1012 89.023 32.7307 83.7651 30.4493C81.1501 29.3039 78.5258 28.4308 75.9295 27.8581C73.3426 27.2667 70.765 26.9944 68.1687 26.9944C67.2348 26.9944 66.3009 27.0319 65.3669 27.107C62.4344 27.3605 59.2871 28.1304 56.1212 29.4166C51.3675 31.3412 46.4925 34.3643 42.2152 38.5046C37.9285 42.6449 34.2395 47.9119 32.0355 54.2773C30.4665 58.7368 29.7754 63.2057 29.7754 67.5056C29.7754 73.4579 31.1016 79.0628 33.2215 84.0762C35.3602 89.0897 38.274 93.4835 41.5988 97.0605C43.0744 98.6565 44.2418 100.628 45.101 102.844C45.9695 105.069 46.5579 107.519 46.9221 109.988C47.1556 111.481 47.2209 112.983 47.2209 114.523C47.2209 116.213 47.1276 117.95 46.9968 119.743C46.838 122.071 46.6513 124.522 46.6513 127.113V127.939C46.7166 131.873 47.4918 135.675 48.7712 139.262C50.0414 142.857 51.8252 146.228 53.8891 149.317C56.6442 153.391 60.0156 156.799 63.9567 159.344C67.8979 161.907 72.362 163.615 77.2277 164.423C81.5144 165.127 85.6796 165.268 89.6861 165.474C93.6926 165.653 97.5217 165.906 101.117 166.667C104.647 167.399 107.244 168.356 109.607 169.455C111.39 170.281 113.025 171.201 114.827 172.178C117.489 173.642 120.468 175.229 124.362 176.534C128.257 177.839 132.992 178.862 139.305 179.388C140.734 179.51 142.144 179.576 143.536 179.576C148.84 179.576 153.874 178.731 158.45 177.078C165.324 174.609 171.18 170.347 175.28 164.601C177.325 161.719 178.941 158.489 180.033 154.969C181.126 151.438 181.696 147.617 181.696 143.59C181.696 137.985 180.855 133.337 179.492 129.441ZM171.955 155.447C170.834 158.039 169.359 160.367 167.537 162.404C164.801 165.474 161.364 167.896 157.292 169.568C153.239 171.239 148.57 172.159 143.489 172.159C142.303 172.159 141.098 172.112 139.875 171.999C137.288 171.783 135.037 171.483 133.057 171.117C131.068 170.751 129.34 170.319 127.799 169.849C125.502 169.136 123.587 168.338 121.813 167.465C120.468 166.826 119.198 166.113 117.872 165.408C115.892 164.329 113.819 163.165 111.344 162.113C108.878 161.052 106.039 160.095 102.574 159.362C98.2688 158.47 94.0382 158.245 90.0037 158.039C85.9505 157.851 82.056 157.691 78.3951 157.072C74.4539 156.414 70.9891 155.081 67.9446 153.091C64.8906 151.1 62.229 148.444 59.9689 145.101C58.1945 142.472 56.7189 139.656 55.6916 136.727C54.6456 133.798 54.0479 130.793 54.0105 127.751V127.066C54.0105 124.841 54.1693 122.578 54.3467 120.194C54.4588 118.344 54.5989 116.448 54.5989 114.476C54.5989 112.664 54.5055 110.768 54.216 108.824C53.777 105.942 53.0953 102.966 51.9559 100.055C50.8165 97.1731 49.2289 94.3566 46.9688 91.925C44.2418 88.9958 41.7575 85.2873 40.0018 81.1283C38.2273 76.9316 37.1533 72.2937 37.1533 67.4587C37.1533 63.9568 37.723 60.3422 39.0025 56.6807C40.2072 53.2445 41.9163 50.2027 43.9896 47.5176C47.0809 43.5181 51.0033 40.3354 54.9444 38.1385C56.9243 37.04 58.9042 36.1669 60.7721 35.5473C62.6586 34.937 64.433 34.5709 65.9833 34.4488C66.7118 34.3831 67.4402 34.3643 68.1687 34.3643C70.1953 34.3643 72.2219 34.5897 74.3139 35.0685C77.4612 35.782 80.7392 37.04 84.2881 38.9177C87.8183 40.7954 91.6007 43.2646 95.6725 46.4003C97.6991 47.9588 99.8004 49.1887 101.911 50.1557C105.077 51.5922 108.308 52.4183 111.474 52.8784C114.668 53.3384 117.806 53.4323 120.879 53.4323C123.662 53.4323 126.417 53.3384 129.125 53.3572C131.899 53.3572 134.654 53.4511 137.391 53.7515C140.482 54.1177 143.284 55.0283 145.796 56.3333C149.55 58.3049 152.641 61.1684 154.948 64.3699C156.106 65.9753 157.04 67.6183 157.769 69.2706C158.497 70.9136 159.001 72.5378 159.272 74.0306C159.702 76.3871 159.861 79.2506 159.861 82.3863C159.861 84.9212 159.777 87.6251 159.655 90.3947C159.571 93.1643 159.45 95.9996 159.45 98.7973C159.45 102.065 159.59 105.294 160.066 108.411C160.318 110.082 160.795 111.613 161.411 113.03C161.934 114.27 162.569 115.415 163.232 116.485C164.418 118.391 165.716 120.109 166.968 121.846C168.854 124.456 170.629 127.132 171.973 130.502C172.655 132.192 173.225 134.042 173.617 136.201C174.028 138.351 174.252 140.773 174.252 143.571C174.28 148.03 173.43 151.992 171.955 155.447Z" fill="#A9C7D6"/>
<path d="M154.304 130.108C153.893 127.319 152.94 124.888 151.848 122.644C151.026 120.954 150.139 119.377 149.298 117.818C148.019 115.481 146.842 113.237 145.973 110.908C145.105 108.542 144.582 106.12 144.582 103.285C144.582 102.093 144.675 100.853 144.899 99.5013C145.404 96.3938 145.702 93.3895 145.702 90.5072C145.702 87.6249 145.404 84.9023 144.703 82.2923C144.171 80.3489 143.405 78.4712 142.35 76.7531C141.575 75.4669 140.622 74.2558 139.529 73.1573C137.895 71.5143 135.906 70.1155 133.608 69.0358C131.311 67.9373 128.733 67.1393 125.819 66.5854C121.766 65.8343 118.628 65.4682 116.079 65.2804C114.164 65.149 112.595 65.0739 111.25 64.9894C110.251 64.9143 109.364 64.8485 108.542 64.7077C107.29 64.5293 106.123 64.2571 104.619 63.6844C103.144 63.1117 101.323 62.2667 98.9786 60.9335C94.6919 58.5113 90.1905 56.1267 85.6983 54.2959C83.4663 53.3852 81.2155 52.606 79.0115 52.0521C76.7794 51.5075 74.566 51.1602 72.3807 51.1602C70.6996 51.1602 69.0092 51.3667 67.3749 51.8455C65.7312 52.3243 64.1622 53.1036 62.752 54.1832C61.4258 55.1878 60.2024 56.2205 59.1097 57.3002C58.2879 58.0982 57.5314 58.9432 56.8496 59.8351C55.8503 61.1683 55.0098 62.6516 54.4401 64.2571C53.8704 65.8531 53.5996 67.5712 53.5996 69.355C53.5996 70.9886 53.8237 72.6316 54.2347 74.3497C54.6643 76.0677 55.2807 77.8703 56.0745 79.7762C58.3346 85.1558 61.0616 90.7607 63.2283 95.0606C65.395 99.3699 67.0106 102.346 67.0293 102.365L67.3749 103.003L67.627 103.21C67.7578 103.444 68.0566 104.036 68.4209 105.134C68.9252 106.646 69.5322 109.096 70.0832 112.899C70.4194 115.208 70.5595 117.79 70.8771 120.494C71.1292 122.512 71.4748 124.615 72.1285 126.7C72.6328 128.258 73.3146 129.835 74.2952 131.319C75.0237 132.445 75.9109 133.497 76.9849 134.455C78.5725 135.9 80.5338 137.093 82.8779 138.003C85.2033 138.924 87.8837 139.562 91.031 139.956C95.3083 140.482 98.4276 141.374 101.071 142.472C103.05 143.289 104.788 144.256 106.515 145.308C107.813 146.087 109.13 146.932 110.522 147.805C112.642 149.082 114.958 150.415 117.788 151.56C120.589 152.706 123.867 153.663 127.827 154.283C129.667 154.574 131.451 154.715 133.132 154.715C136.634 154.715 139.8 154.095 142.536 152.95C144.582 152.105 146.403 150.941 147.953 149.589C150.279 147.551 151.96 145.035 153.052 142.378C154.145 139.703 154.668 136.858 154.668 134.07C154.668 132.746 154.556 131.413 154.304 130.108ZM146.524 138.923C146.113 140.088 145.544 141.167 144.815 142.153C143.723 143.618 142.303 144.848 140.416 145.768C138.53 146.66 136.186 147.251 133.179 147.251C131.899 147.251 130.517 147.138 129.013 146.913C124.932 146.265 121.925 145.289 119.357 144.097C117.423 143.223 115.714 142.219 113.959 141.139C112.642 140.341 111.316 139.468 109.859 138.623C107.701 137.346 105.264 136.041 102.35 134.98C99.4362 133.91 96.0368 133.065 91.9182 132.558C89.8262 132.305 88.0891 131.92 86.6602 131.46C85.4088 131.047 84.3815 130.587 83.541 130.089C82.8125 129.648 82.2148 129.197 81.6918 128.69C80.8046 127.845 80.1882 126.906 79.6932 125.78C79.301 124.935 79.0115 123.996 78.778 122.963C78.4138 121.414 78.2083 119.649 78.0309 117.771C77.8441 115.875 77.6853 113.856 77.3865 111.8C76.6206 106.533 75.7054 103.304 74.8649 101.248C74.4353 100.215 74.043 99.4638 73.6601 98.8911C73.5387 98.7221 73.4547 98.6094 73.3426 98.4968C72.885 97.6518 71.4281 94.901 69.6069 91.2864C67.5056 87.1461 64.9374 81.8135 62.8641 76.8658C62.1823 75.2416 61.706 73.7957 61.3885 72.5377C61.0896 71.2796 60.9495 70.2281 60.9495 69.3174C60.9495 68.4068 61.0616 67.6651 61.2951 66.9515C61.4538 66.4258 61.678 65.9 61.9768 65.3743C62.4345 64.5763 63.0695 63.7501 63.9381 62.877C64.7973 61.9851 65.8713 61.0744 67.1881 60.0698C67.8699 59.5347 68.5796 59.1967 69.4482 58.9432C70.2887 58.6897 71.2693 58.5583 72.362 58.5583C73.7909 58.5583 75.4346 58.7836 77.209 59.2155C79.8987 59.882 82.8779 61.0274 85.9505 62.4733C89.0231 63.9097 92.217 65.609 95.3363 67.3928C98.3809 69.1109 100.818 70.2563 103.078 71.0074C104.76 71.5801 106.31 71.8993 107.813 72.1058C108.925 72.2654 110.017 72.3311 111.11 72.4062C112.773 72.4907 114.482 72.5659 116.602 72.7724C118.722 72.9508 121.224 73.27 124.437 73.8896C127.258 74.4154 129.508 75.2228 131.264 76.1804C132.581 76.9127 133.636 77.7389 134.495 78.6496C135.794 80.0297 136.709 81.6257 137.325 83.5973C137.932 85.5689 138.259 87.8784 138.259 90.5354C138.259 92.8919 138.007 95.5206 137.549 98.3372C137.279 100.074 137.138 101.726 137.138 103.304C137.138 106.693 137.727 109.763 138.642 112.486C139.324 114.523 140.146 116.401 141.033 118.137C142.331 120.747 143.723 123.038 144.815 125.207C145.357 126.287 145.833 127.338 146.225 128.371C146.608 129.404 146.907 130.408 147.085 131.413C147.253 132.286 147.318 133.15 147.318 134.041C147.365 135.694 147.085 137.365 146.524 138.923Z" fill="#A9C7D6"/>
<path d="M122.728 98.1119C122.728 96.7788 122.542 95.5019 122.224 94.2908C121.701 92.1784 120.786 90.2819 119.562 88.6765C118.647 87.4842 117.555 86.4608 116.378 85.6065C114.594 84.3297 112.642 83.3908 110.522 82.6116C108.43 81.8323 106.17 81.1939 103.807 80.6024C101.865 80.1142 100.072 79.6824 98.3626 79.3632C96.6535 79.0439 95.0565 78.8374 93.4688 78.8374C92.2828 78.8374 91.1247 78.9501 89.9386 79.2974C89.0701 79.5415 88.1829 79.9546 87.389 80.5273C86.7913 80.9686 86.2497 81.4943 85.792 82.0858C85.1103 82.9777 84.606 83.9823 84.2884 85.062C83.9709 86.1416 83.8121 87.2401 83.7468 88.423C83.7187 88.7235 83.7188 88.9957 83.7188 89.2774C83.7188 91.6339 84.1577 93.9622 84.7274 96.2342C85.6146 99.6235 86.866 102.844 87.912 105.247C88.958 107.651 89.7985 109.256 89.8266 109.303C90.7138 111.293 91.8065 113.058 93.1046 114.523C95.1499 116.833 97.5874 118.438 100.118 119.443C102.64 120.447 105.236 120.888 107.674 120.888C109.336 120.888 110.933 120.682 112.437 120.316C113.417 120.062 114.323 119.696 115.164 119.236C116.649 118.41 117.9 117.246 118.899 115.941C119.656 114.955 120.244 113.856 120.749 112.711C121.496 110.993 122 109.143 122.336 107.172C122.654 105.2 122.812 103.144 122.812 100.994C122.812 100.055 122.794 99.0695 122.728 98.1119ZM115.117 106.026C114.94 107.153 114.669 108.158 114.351 109.031C113.866 110.336 113.277 111.312 112.689 111.932C112.39 112.251 112.091 112.504 111.774 112.692C111.456 112.871 111.111 113.03 110.728 113.124C109.859 113.349 108.832 113.471 107.767 113.471C106.702 113.471 105.6 113.331 104.536 113.077C102.92 112.664 101.37 111.932 100.006 110.833C98.6334 109.716 97.4473 108.223 96.5414 106.12L96.4761 105.979L96.4013 105.848C96.3733 105.801 96.0278 105.125 95.5141 104.036C95.0005 102.947 94.3374 101.445 93.6743 99.7361C93.0112 98.0368 92.3762 96.1403 91.8999 94.2908C91.4142 92.4507 91.1434 90.6669 91.1434 89.2774C91.1434 89.0896 91.1434 88.93 91.1714 88.7892C91.2088 87.9442 91.3302 87.3715 91.4609 87.0523C91.5543 86.7988 91.6197 86.7143 91.6664 86.6674C91.6944 86.6204 91.7131 86.6204 91.7598 86.5735C91.8251 86.5266 91.9372 86.4608 92.2361 86.3857C92.5069 86.32 92.9458 86.2731 93.5155 86.2731C94.4028 86.2731 95.6075 86.4139 97.0644 86.6862C98.5026 86.9584 100.184 87.3527 102.033 87.8315C104.33 88.4042 106.376 88.9957 108.085 89.6435C109.364 90.1223 110.457 90.6199 111.344 91.1738C111.998 91.5869 112.567 92.0188 113.025 92.4788C113.735 93.1642 114.23 93.8965 114.641 94.8541C115.052 95.8211 115.351 97.0322 115.444 98.6095C115.481 99.4357 115.509 100.262 115.509 101.06C115.509 102.844 115.369 104.543 115.117 106.026Z" fill="#A9C7D6"/>
</svg>
