<?xml version="1.0" encoding="UTF-8"?>
<svg id="Layer_1" xmlns="http://www.w3.org/2000/svg" xmlns:xlink="http://www.w3.org/1999/xlink" version="1.1" viewBox="0 0 1087.6 1409">
  <!-- Generator: Adobe Illustrator 29.1.0, SVG Export Plug-In . SVG Version: 2.1.0 Build 142)  -->
  <defs>
    <style>
      .st0, .st1 {
        fill: none;
      }

      .st1 {
        stroke: #e1e1d3;
        stroke-miterlimit: 10;
        stroke-width: .8px;
      }

      .st2 {
        clip-path: url(#clippath);
      }
    </style>
    <clipPath id="clippath">
      <rect class="st0" x="0" y=".8" width="1085" height="1408"/>
    </clipPath>
  </defs>
  <g class="st2">
    <g>
      <path class="st1" d="M453.2,137.9c-15.1,5.9-15.7,21.1-20.4,33.2-2.9,7.4-2.6,16.1-4.5,24-4.1,17-7.4,34.2-20.5,47.7-10.8,11.1-21.5,22.5-30.1,35.3-6.7,10-9.9,22.3-14.9,33.5-5.6,12.7-10.9,25.6-17.4,37.9-5.9,11.2-8.7,23.3-12.5,35.2-4,12.6-9.4,24.3-23.8,29.3-9.8,3.4-19.7,7.8-28.2,13.8-13.8,9.8-26.1,21.3-29.3,39.7-1.9,11-2.7,22-2.6,33.1,0,6.9-4.2,10.7-11,11.1-12,.7-24.1,1-35.8,2.9-9.4,1.6-16.1,8.7-22,15.7-4.4,5.3-8.2,11.5-11,17.9-3.1,7.2-5.1,15-7,22.7-1.9,7.7-6.1,13.5-12.5,17.9-9.9,6.7-19.6,13.6-29.7,19.9-9.4,5.8-14.3,15-18.2,24.4-2.3,5.5-2,12.3-1.5,18.5,1.2,14.8-5.3,27.3-13.1,38.3-4.7,6.7-14.1,10.3-21.6,14.8-9,5.3-19.2,9.1-27.4,15.5-17.3,13.6-31.6,29.9-36.6,52.2-1.4,6.4-.6,13.3-.9,20v.7c0,28,13.1,50.6,29.7,71.7,2,2.6,4.3,4.9,6.2,7.6,5.1,7.6,5.3,15.6,4.6,24.8-1,13.4-3.3,26.8,1.1,40.8,5.4,16.9,13.6,32.3,21,48.2,10,21.5,16,44.5,21.3,67.6,2.1,8.9,2.6,18.3,2.8,27.5.8,25.7,1,51.5,1.5,77.2.3,12.7,1.6,25.3,1.1,37.9-.5,12.7-2.6,25.3-3.9,37.9-1,9.4-1.7,18.9-2.8,28.3-1.2,10.8-2.8,21.6-4.1,32.4-1,8.5-2,17-2.7,25.5-1.1,13.3-2.3,26.7-2.7,40-.3,9.9.6,19.8,1.3,29.7.6,7.9,11.6,17.8,19.9,17.9,19.2.3,34.8-7.4,47.6-21.4,13-14.3,22.7-30.3,26.2-49.7.4-2.3,1.3-4.6,1.3-6.9.2-11.8-.8-23.7,2.9-35.2,1.7-5.2,3.9-10.2,6.2-15.2,7.5-16.1,14.8-32.4,22.9-48.2,2-4,6.2-7.6,10.2-9.6,34-16.4,65.8-36.7,98.7-55.1,19.3-10.8,39.8-19.8,59.9-29.1,14.3-6.6,28.7-13.2,43.5-18.5,12.5-4.5,25.7-7,38.5-10.6,9.3-2.6,18.5-5.1,27.6-8.3,13.7-4.8,22.1-15.5,29-27.5,8.9-15.6,18.1-31,26.1-47,6-12,10.5-24.6,15.3-37.2,6.2-16.5,11.3-33.4,18.3-49.5,3.5-7.9,10-14.6,15.6-21.4,4.4-5.2,9.4-9.9,14.4-14.5,9.1-8.4,16.5-17.6,20.9-29.6,4.5-12.5,12.3-23,23.8-30.6,9.5-6.3,17.1-14.8,22.8-24.7,8.8-15.2,22.4-23.8,38.6-29.8,17.8-6.6,35.3-13.9,52.4-22,27.1-12.9,50.9-30.6,72.7-51.4,25-23.9,40.8-53.3,55.8-83.6,12.4-25,22.6-50.8,33.2-76.5,6.6-16.1,16.2-31,23.1-47.1,11.2-25.9,21.4-52.3,31.9-78.5,9.3-23.4,17.6-47.3,27.9-70.2,8.4-18.7,19.2-36.4,33-51.7,12.8-14.3,20.6-31.1,27.3-48.5,6.8-17.7,9.9-36.4,12.7-55.1,2.5-17.1,5.7-34,8.1-51.1,1.2-8.5,1.2-17-1.1-25.6-2-7.5-2.8-15.6-2.8-23.4,0-15-5.5-28.4-10.4-42.1-7.2-20-19.3-36.8-37-47.7-10.8-6.7-23-13.6-36.9-12.8-7.4.5-14.8,2.3-22.1,4-17.1,4-34.2,7.6-51,12.6-12.7,3.8-25.1,9.1-37.3,14.4-15.3,6.7-30.9,11.4-47.6,13.1-10.7,1.1-21.3,3.1-31.7,5.6-5.5,1.3-10.6,4.4-15.9,6.7-25.4,11.5-48.2,27.1-69.7,44.8-18,14.9-35.7,30.2-54.7,43.9-12.3,8.8-24.4,18.8-39.8,22.3-9.3,2.1-18.9,3.1-28.3,5-15,3-30.1,5.7-44.8,9.8-16.8,4.7-33.2,10.8-49.7,16.4-2.8.9-6,1.7-8.2,3.5-4.9,3.9-10.1,2-15.3,1.8-1,0-2.4-1.6-2.7-2.7-3.4-15.1-6.8-30.3-9.6-45.5-.9-4.6-2-8.6-5.6-11.7-2.7-2.4-5.1-5-7.6-7.6"/>
      <path class="st1" d="M429.1,264.8c-15.9.5-25.5,11.7-32.7,23-13.8,21.4-25.2,44.4-37.7,66.6-9.3,16.6-13.6,34.8-18.2,53-2.4,9.6-8.6,16.6-19.7,19-12.8,2.8-26.7,2.7-37.9,10.2-17.2,11.5-29.6,26.4-27.5,48.8.4,4.4,2.6,8.8,4,13.1,5.8,18.2-7.3,33.4-24.9,29.8-19.6-4-42.4,10-49.5,23.4-3.9,7.3-6.6,15.4-9,23.4-3.6,12.1-10.6,21.3-20.9,28.2-6.4,4.3-13.4,7.7-19.9,11.8-11,6.9-19.1,16.1-20.6,29.6-1,9.4-1,18.9-2.2,28.2-1.7,13.4-7.6,25.1-17.3,34.3-7.8,7.4-17.5,12.8-25.2,20.4-6.1,6.1-10,14.3-15.5,21.1-16.4,20.4-20.4,44-16.9,69,1.2,8.3,5.7,16.4,9.5,24.1,3,6.1,7.1,11.6,10.9,17.3,5.3,7.8,7.7,16,7,25.5-.9,12.6-1.2,25.3-.6,37.9.3,6.5,2,13.3,4.8,19.2,7,15.2,14.9,30,22.6,44.9,12.2,23.6,19.3,48.8,21.2,75.2,1.5,19.5,6,38.4,13,56.4,4.4,11.4,11.3,22.8,23.1,29,3.9,2,8.8,3.8,13,3.3,8.6-1.1,17.3-3.2,25.5-6,16.4-5.7,28.6-17.8,41.5-28.7,5.9-5,12.8-7.2,21.3-6.6,28.2,1.9,56.5,3.3,84.8,3.4,11,0,22.1-4.2,33.1-6.5,30.4-6.6,60-15.6,89-27,19.2-7.5,32.6-21.7,42.8-39.2,18-31,32.9-63.4,44.9-97.2,5-14.3,13.3-26.7,23.4-38,6.5-7.3,13.6-14.2,19.1-22.2,4.7-6.9,8.2-14.8,11.1-22.7,4.3-11.5,9.8-21.5,20-29.2,8.2-6.2,14.9-14.4,22.2-21.9,1.6-1.6,3.4-3.4,4.1-5.5,5.3-16.4,18.3-24.2,33.3-28.8,26.7-8.1,50.1-22.7,73.7-36.7,8.6-5.1,16.8-10.9,25.6-15.8,25.7-14.2,43.8-36.5,62.7-58,18.6-21.3,28.8-47.6,41.4-72.4,14.1-27.9,28.2-55.8,41.3-84.2,6.1-13.2,9.9-27.5,14.7-41.3,13.6-38.6,26.2-77.6,41.1-115.7,7.5-19.2,18.9-37,28.6-55.3,12.4-23.2,29.2-44.2,35.8-70.4,4-15.6,8.5-31.2,8.4-47.6,0-9.7,1.2-19.3,1.2-29s-3.8-21.9-9-31.7c-8.6-16.2-23.8-25.7-39.4-33.5-7.1-3.5-16.4-2.5-24.6-3.9-17.4-3-34.6.1-51.7,1.7-32.1,3-64.1,7.3-95.9,12.3-30.1,4.7-57.4,16.5-79.3,38.5-14,14.1-27.3,28.8-41.5,42.6-10.4,10.1-21.7,19.3-33.1,28.3-9,7.2-18.2,14.4-28.3,19.9-19,10.2-39.9,15.3-61.3,18.2-34.7,4.8-67.9,15.9-101.4,25.4-9.2,2.6-18.4,5-27.6,7.7-3.9,1.1-7.5.8-11-.8-6.2-2.7-12.4-5.5-18.6-8.3"/>
      <path class="st1" d="M232.5,565.4c-5.1,1.6-10.2,3-15.2,4.9-10.8,4.2-15.2,14.4-19.8,23.5-7.5,14.9-18.2,24.9-34,30.5-6.3,2.2-11.6,7.1-17.3,10.8-8.7,5.5-10.6,14-10.3,23.4.2,6.9-.5,14,.9,20.6,3.4,16.1-3.8,28.9-12,41.4-5.4,8.2-12,15.6-17.7,23.6-2.2,3-3.6,6.7-4.9,10.3-4.4,12.3-6.4,25.1-4.6,37.9,1.4,9.4,5.3,18.4,8,27.6,3.3,11.5,7.7,22.8,9.3,34.5,1.4,10.1-1.5,20.7-.8,31,1.2,18.6,2.8,37.1,12.7,53.9,7.8,13.2,13.5,27.7,21,41.2,9.1,16.5,20.5,31.7,36,42.5,9.1,6.4,20.3,10,30.9,14,30.7,11.5,62.7,17.5,95.1,21.7,30.2,3.8,59.7,0,89-6,31.8-6.5,57.7-23.7,75.7-50.9,11.2-16.8,21.1-34.5,30.4-52.4,14-27,27.1-54.5,40.1-82,8.6-18.4,16.3-37.1,24.2-55.8,2.9-6.8,7.9-11.4,13.8-15.1,3.4-2.1,6.7-4.5,10.4-6.2,11.7-5.2,18.7-15.6,25.9-25.1,7.2-9.6,16.4-14.2,27.2-17,17.6-4.4,33.6-13,49.4-21.1,13.3-6.9,25.6-16.4,36.5-26.8,10.8-10.3,22.4-18.8,35.4-26.1,8.4-4.7,16.1-10.9,23.5-17.2,8.7-7.4,16.3-16,25-23.2,13.9-11.5,22.6-27,30.7-42.3,19.3-36.3,38.3-72.9,55-110.4,10.2-22.8,17.2-47.3,23.6-71.6,9.8-36.7,23.1-72,36.3-107.5,4.8-13,11.3-25.4,17.1-38,4.8-10.4,4.3-20.4-1.4-26.2-6.8-7.1-15-9.9-24.9-9.7-30.4.7-60.7,1.3-91,1.4-33.5,0-66.4,4.6-98.6,13.4-7.1,1.9-13.6,6.3-20,10.2-18.2,10.8-34.1,24.4-49,39.2-21.9,21.7-48.7,35.1-78,43.3-20.7,5.7-41.9,9.6-62.7,14.7-28.6,7.1-57,15-85.6,21.8-8.4,2-17.4,2-26.2,2.2-13.8.2-27.5,1.9-40.7,5.8-11.1,3.3-18.7,11.4-22.6,22-3.5,9.4-6.2,19.1-8.3,28.9-2.9,13-12.7,21.8-25.6,22.1-16.8.4-33.6.8-50.4,1.5-2.6,0-5.4,1.3-7.5,2.7-4.4,2.9-8.4,6.3-12.5,9.6-4.8,3.9-7.9,13.6-5.4,19.3,5.3,12,5.8,23.9,2.3,36.7-2,7.6-.9,16-1,24,0,8.6-1.8,16.1-11.1,19.2-2.6.9-5.5,1.5-8.3,1.3-5.8-.3-11.5-1.3-17.2-2"/>
      <path class="st1" d="M313.2,466.1c-3.7.9-7.3,2.3-11,2.7-12.5,1.4-18.3,9.2-19.9,20.8-2.2,15.8-5.7,31.4-4.4,47.6.6,8.1,5.4,13.9,8.5,20.7,3,6.3,1.8,14-3.5,18.6-4.7,4.1-9.2,8.6-14.6,11.6-7.1,3.8-14.8,4.3-22.7,1-5.4-2.2-11.4-3.8-17.2-4.1-10.9-.5-15.8,8.4-21.3,15.7-2.5,3.3-4.4,7.2-6.2,11-3.3,6.9-8.4,11.7-15.2,15.2-7.9,4.1-16.3,7.9-23.4,13.2-13.6,10.3-15.4,24.7-11.9,40.5,1.4,6.4,2.5,12.8,3.4,19.3.3,2.4.1,5.2-.7,7.5-3.2,9-6.4,18.2-10.4,26.8-2.3,5-5.9,9.6-9.6,13.8-7,8-9.9,17.6-10.8,27.7-1.1,11.8,0,23.6,3.3,35.2,2.3,8.3,5.6,16.4,6.6,24.9,1.2,9,1.3,18.5,0,27.5-3.7,26.7,4.2,50.4,16.8,73.1,6,10.8,13.2,21,19.2,31.8,8.1,14.8,20.8,24.6,33.8,34.5,25.5,19.4,55.1,28.2,85.6,35,24.4,5.4,49.2,4.5,73.8,1.9,22.8-2.4,44.8-9,64-21.4,17-11,30.7-25.6,41.8-43,13.4-21,23.5-43.4,32.9-66.3,12.7-31.1,25.7-62.1,38.6-93.1,1.4-3.4,3.2-6.8,4.1-10.4,2.8-11.2,10.8-17.5,20.1-22.7,12.9-7.2,25.9-14.1,35.9-25.5,4.3-4.9,8.8-9.7,13.9-13.7,3.7-2.9,8.4-5.3,13-6.2,21.3-4.2,41.3-12.1,59.9-23.1,12.3-7.3,23.7-16.7,28.8-30.3,7.1-19.1,22.2-26.2,39.7-30.8,9.2-2.4,17.5-6,24.9-12.4,10.2-8.8,20.8-17,31.7-24.8,8.3-5.9,14.5-13.6,19.1-22.2,17.1-32.5,34-65.1,50.4-97.9,13.5-26.9,22.9-55.3,29-84.8,4.5-22,8.8-44.1,12.3-66.2,1.3-8.3,1.9-17.5-.3-25.3-1.8-6.5-7.2-13.3-15.4-14.5-11-1.6-22-3-33.1-3.4-24.4-.9-48.8-1.9-73.1-1.2-17.5.5-35.4,1.6-52.3,5.9-12.1,3.1-23.1,11.1-33.9,18.2-16.5,10.9-31.7,23.7-48.5,34.1-24.5,15.1-50.3,27.1-79.1,32.2-25,4.4-49.7,10.8-74.5,16.3-17.5,3.9-35.1,7.2-52.4,11.9-11.3,3.1-22.8,6.8-33,12.5-12.9,7.2-24.6,16.7-36.7,25.2-3,2.1-6.6,3.6-8.9,6.3-6,7.1-13.9,8.1-22.2,7.4-14.7-1.1-29.4-2.7-44.2-4.1"/>
      <path class="st1" d="M195.3,704c-3.4,13.8-6.2,27.8-10.7,41.3-2.2,6.6-7.3,12.2-11.5,18-6.7,9.2-13.8,18.3-13.6,30.4,0,4.8.3,10.1,2.1,14.4,7.5,17.9,5.7,36.3,3.1,54.5-2.1,14.4-.3,28.1,4.5,41.3,2.2,5.9,5.5,11.7,9.6,16.5,13.2,15.2,29.1,27.5,45.3,39.5,23.2,17.3,49.4,28.1,77.4,33.2,14,2.6,28.9-.5,43.4,0,17,.5,30.8-7.7,44.8-15.4,3-1.6,5.8-3.9,8.3-6.2,15.3-14.1,27.1-30.7,36-49.6,6.8-14.5,14.8-28.4,21.9-42.8,12.8-25.9,21.2-53.3,27.7-81.3,2.7-11.5,3.7-23.4,10.1-33.9,3.3-5.5,7.1-8.9,13.3-10.3,12-2.7,24-5.8,35.9-8.9,7.9-2.1,15-5.5,20.7-11.7,4.9-5.2,10.1-10.1,15.1-15.2,8.4-8.5,19-10.8,30.4-10.3,21,1,38.9-5.1,52.5-22,9.7-12,15.8-25.9,22.6-39.4,2.1-4.1,4.8-7.1,9-9,7-3.2,13.8-6.9,20.7-10.2,6.4-3.1,12-6.7,16-13,4.5-7,12.5-7.5,19.8-6.8,5.5.6,9.6-.1,13.9-3.6,9.4-7.6,19.2-13.7,31.5-17.3,9.9-2.9,17.2-12,21.7-22.7,7.9-18.6,17.3-36.6,25.1-55.3,3.7-8.9,5.7-18.7,7.7-28.2,2.6-12.7-10.1-31.6-24-35.3-18.5-5-36.6-12.2-55.3-16.1-20.9-4.3-41.8-4.2-62.2,6.3-24.9,12.9-50.5,24.8-76.6,35.1-22.4,8.9-45.5,16.9-68.9,21.9-29.2,6.3-59.2,9.1-88.9,13.6-21.4,3.3-43,5.9-64.1,10.6-19.2,4.3-36.5.8-54-7-11.7-5.2-22.7-12.3-35.8-14-7.3-.9-16.6,4.2-19.3,11.1-1.5,3.8-2.7,7.7-3.4,11.7-1.9,11,4.8,18.2,12.5,24,10.2,7.7,20.8,15,21.8,29.1.6,8.4.5,17.2-1,25.4-.6,3.2-5.7,6.1-9.3,8.2-3,1.7-6.8,2-10.3,2.9-11.2,2.8-19.2,11-28.2,17.4-6.9,5-13.9,7-22.2,5.4-4.1-.8-8.3-.9-12.4-1.4-9.3-1.3-17.4.6-24.2,7.6-8.2,8.4-16.5,15.8-28.1,20.5-15.1,6.2-16.9,15.8-9.2,30.6,2.8,5.3,5.5,10.6,8.3,15.9"/>
      <path class="st1" d="M502.2,714.4c10.6,0,21.5,1.7,31.6-.5,8.6-1.9,16.3-8,24.2-12.7,3.9-2.3,8.1-4.9,11-8.3,8.7-10.4,20.4-12.6,32.5-12.1,23.5.9,36.3-13.3,46.9-31.2,2.1-3.5,4-7.2,5.5-11,7.5-18.8,20.6-31.8,39.3-39.3,9.8-3.9,10.3-14.3,14.5-22,2.7-4.9-.3-8.8-1.5-13.1-.3-1.1-1.6-2-2.7-2.8-12.3-8.5-26.6-7.3-40-5.9-22.9,2.4-45.7,6.5-68.3,10.8-29.8,5.7-59.2,12.9-89,18.3-18.2,3.3-36.7,5.2-55.2,6.2-16.7.9-33.6-.2-50.3-.5-9.7-.2-18.3,1.7-22.8,11.7-3,6.7-6.2,13.5-9.7,20-7.3,13.8-20.2,19.4-34.5,21.9-11.2,2-20.1,7.7-26.7,16.2-6.9,9.1-15.6,13.7-26.4,15.8-8.5,1.6-17,3.6-21.4,12.4-1.2,2.5-2.8,4.9-3.4,7.6-1.8,8-2.8,16.2-5.1,24.1-2,6.7-4.4,13.6-8.3,19.2-11.1,16-16.6,34.3-21.6,52.6-2.6,9.7-1.9,20.2-3.1,30.2-1.6,12.9-2.9,25.9-5.7,38.6-2.3,10.3-.4,19.6,3,29,6.4,17.8,19.4,29,35.8,37.3,15.5,7.8,32.4,11.3,49,11.7,20.7.5,42.1,0,60-13.9,9.9-7.8,15.8-18.7,23.6-28.2,21.8-26.8,37.7-57.4,54.7-87.2,8.6-15.1,12.4-32.7,14.8-50.1,1.4-10.3,7.1-17.9,14.6-24,10.3-8.4,20-17.9,33.7-20.8"/>
      <path class="st1" d="M814.7,528.9c-3,10.3-5.1,21.1-9.3,30.9-2.6,6.1-9.2,9.6-16.2,10.4-3.9.5-7.8.3-11.7,0-5.6-.4-10.4.4-13.8,5.5-5.8,8.8-15.7,7.3-24.1,8.8-8.2,1.5-14.1,4.9-18.7,11.9-5.1,7.6-9.5,16-18.5,20.1-1.8.8-3.6,1.7-5.5,2-12.6,2.5-20.6,10-26.4,21.3-6.1,12.1-12.8,24.1-20.7,35.1-8.8,12.2-21.1,19.5-37,18.8-3-.1-6,.1-9,0-12.3-.7-22.8,3-31.8,11.7-6.3,6.1-13.1,11.7-20,17.2-2.8,2.2-6.2,3.8-9.6,4.8-12.6,3.8-25.4,5.9-38.6,5-2.7-.2-5.8.8-8.2,2-14.6,7.3-25.3,18.3-26.8,35.1-2.3,25.4-13.6,47.7-22.2,71.1-7.5,20.3-20.6,37.3-31.2,55.8-6.6,11.7-13.4,23.2-20.7,34.5-8.5,13.1-20.3,23.8-34.6,28.4-15.4,5-32,6.6-48.8,5.7-24.1-1.3-45.8-10.1-66.6-20.1-20.7-10-40.2-23.4-53.4-43.6-4.9-7.5-6.2-15.9-7.1-24.8-1.3-13,4-24.8,5-37.3.8-9.2,2-18.5,1.2-27.6-1.1-13-.3-25,7.7-35.9,1.7-2.3,2.4-5.4,3.5-8.2,6.2-15.6,12-31.4,18.8-46.8,3.3-7.5,4.7-14.8,3.3-22.8-.6-3.7,0-7.8-1.6-10.9-3.2-7-.6-12.9,2.3-18.7,4.2-8.1,11.6-13.2,20-14.8,6.5-1.3,13.7,1,20.6,1.7,11.6,1.2,23,2,31.1-8.9.9-1.3,3-1.6,4-2.9,8-10.1,19-14.5,31.1-16.4,16.6-2.7,22.7-15.9,20.1-30.4-2.4-13.7-3.6-27.5-4.9-41.4-1.2-11.8,6.4-17.8,17.9-14.5,10.8,3.1,21.6,5.9,32.4,9,8,2.4,15.9,2.9,24.2,2.1,12.1-1.2,24.4-2,36.5-2.1,14.2-.1,27.1-5.7,40.7-8.3,17-3.3,33.9-6.7,51.1-8.9,23.8-3.1,46.7-9.6,69.6-16.2,17.3-5,34.4-11.1,51-17.9,14-5.8,28.4-5.4,42.8-5.3,6.9,0,13.8.9,20.7,1.3,19.5,1.3,37.8,7.7,56.6,12.4,6.9,1.7,14.8,1.4,19.2,8.4,2.5,4,3.8,8.7,5.6,13"/>
      <path class="st1" d="M436.7,691.6c-4.8-14.2-18.4-16.5-29.8-21-4.2-1.7-10,.3-15,1.1-11.5,1.9-23.7.3-33.9,8.2-9.2,7.2-18.8,13.8-28.2,20.8-16.1,11.9-27.9,27.4-35.7,45.6-6.8,15.8-12.6,32.1-18.7,48.2-5.4,14.2-10.9,28.4-15.7,42.8-2.4,7.3-3.5,15.1-4.9,22.7-1.8,10.2,1.3,19.9,7.2,27.3,4.4,5.5,12.2,10.5,19,11.5,11.2,1.6,23,.3,34.4-1.1,7.1-.9,14.5-3.3,20.6-6.9,6.7-4,12.6-9.9,18-15.6,18.3-19.5,31.7-42.6,44.6-65.6,9.7-17.3,17.7-35.8,19.1-56.3.9-14,6.9-26.7,12.6-39.2,3.2-7,4.6-14.3,6.6-21.5"/>
      <path class="st1" d="M104.2,1362.6c16-1.9,18.6-14.6,21.3-26.9,1.7-7.7,2.9-15.6,3.4-23.4.5-8.2.8-16.8-1-24.7-1.1-4.7-6.4-8.4-10-12.4-.4-.4-2.6,0-3.3.7-5.8,5.7-12.3,10.6-13.3,19.9-1.2,10.7-3.8,21.1-5.3,31.8-1.8,12.5,0,24.5,7.5,35.2"/>
      <path class="st1" d="M615.4,600.6c-43.8,4.6-85.7,18.7-129,25.6-15.1,2.4-30.1,4.4-45.6,2.8-10.3-1-20.7-1.3-31-.6-6.3.5-12.8,2.6-18.6,5.4-9.8,4.9-18.8,11.1-28.4,16.3-3,1.7-6.8,2.6-10.3,2.8-14.3.9-26.2,6.6-34.3,18.2-5.6,8-14.2,11.2-21.5,16.5-6.1,4.4-12,9.2-17.1,14.6-2.2,2.3-2.5,6.7-2.9,10.2-1.7,16.3-9.2,30.7-15.4,45.4-11.7,27.5-19.4,56.1-26.4,85-2.2,8.9-.3,18.8-1.1,28.2-.8,8.6,1.6,16,5.5,23.5,6.2,11.8,17.4,15.7,28.4,20.7,10.5,4.8,21.6,3.9,32.5,4.7,21.6,1.6,40.8-5.5,57.8-18.1,6.2-4.6,10.7-11.9,15.3-18.4,21-30.1,39.2-61.8,56.1-94.3,4.7-9.1,4.3-19,6.7-28.4,1-4.1,1.3-8.3,2.1-12.4,2.8-13.1,11.5-21.8,22.1-29,8.5-5.8,16.9-11.6,25.6-17.1,2.1-1.3,5-2.2,7.5-2,9.2.6,18.4,2.1,27.6,2.5,12.7.6,22.4-6.3,31.7-13.8,5.8-4.7,10.5-11.1,16.8-14.8,5.8-3.5,13.2-4.4,19.8-6.5,7.4-2.4,14.8-4.9,22.1-7.6,4.4-1.7,7-5.1,9.2-9.5,4.3-8.8,9.7-17,14.3-25.6,3.9-7.3,1.5-18-5.6-21.8-3.7-2-8.6-1.6-13-2.3"/>
      <path class="st1" d="M369.8,738.5c-33,15.4-57,39.8-73.3,72.3-6.3,12.6-12.2,24.9-13.2,39.4-.5,7.7,4,12.8,7,18.4,1.4,2.7,8.3,3.8,12.6,3.5,7.9-.5,15.2-2.9,22.2-7.8,22.4-15.9,34-39.3,45.4-63,4.3-8.9,8.2-18,12.5-26.9,4.8-9.8,4.3-20.1.2-29.5-1.5-3.3-8.3-4.3-12.6-6.4"/>
      <path class="st1" d="M945.1,149.6c-1.6.2-3.2.7-4.8.6-35.5-1.5-70.4,4.5-105.5,8.3-12.4,1.4-25.1,2-37.2,5.1-10.1,2.6-20.6,6.8-28.8,13.1-16.3,12.4-31.1,26.8-46.5,40.4-15.9,14-30.8,29.4-47.9,41.7-19.2,13.8-40.6,23.9-63.8,30.3-29.1,8.1-59.1,11.8-88.3,19.2-14.5,3.6-28.7,8.7-42.8,13.7-11.7,4.1-22.7,10.3-34.6,13.3-9.4,2.4-19.8,2.5-29.5,1.5-11.9-1.2-21.2,2.3-29.7,9.9-9.9,8.8-15.7,20-20.1,32.4-4.4,12.2-8.6,24.3-11.3,37.2-3.5,17-9.6,22.4-31.3,23.6-9.9.5-19.8,2-29.7,2.6-16.9,1.1-33.4,21.8-31.6,37.3.5,4.2,2,8.3,3.4,12.4,2.5,7.7,4.5,15.5,1.9,23.4-2.5,8-5.1,16.1-9.1,23.3-3.4,5.9-11,4.9-17,6.3-8.7,2-18,.6-26.3,5.4-10,5.8-17.4,13.5-22.1,24.2-4.8,10.9-8,23-18.6,30.3-5.9,4.1-12.1,8-18.6,11-9.6,4.4-17.5,10.6-24.1,18.7-8.2,10.1-7.5,22.2-6.6,33.8.7,9.6-.5,18.2-4.3,27-6.3,14.6-15.7,26.3-28.3,35.9-10.1,7.7-14,19.7-18.7,30.9-5.7,13.9-6.8,28.7-7.5,43.4-.5,9.4,5.6,16.9,9.6,24.8,3.1,6.1,7.1,11.8,10.2,18,1.6,3.3,2.7,7.3,2.7,11,.2,9.4,0,18.9-.6,28.3-1.7,25.4,5.1,48.7,16.6,71,7.4,14.2,14.4,28.7,22.2,42.7,6.5,11.7,9.6,24.2,10.2,37.3.5,12.8,4.4,24.8,8.6,36.5,5.7,15.7,20.8,20.8,35.7,16.6,8.3-2.4,16-6,23.6-10.1,12.3-6.7,25.7-9.6,39.9-7.8,26.5,3.4,52.8,7.5,79.4,10,10.4,1,21.1-2.3,31.7-2.3,25.6,0,49.4-8.3,73-16.3,21.4-7.3,39.5-20.1,54.1-38.1,13.4-16.5,19.8-36.4,29.3-54.7,7.9-15.1,14.4-31,22.3-46.1,5.7-10.7,12.1-21.2,19.3-31,15.9-21.6,25.7-46,34.5-71.1,1-2.8,3.1-5.7,5.5-7.5,6.2-4.7,13.2-8.3,19.1-13.4,5.4-4.6,10.9-9.8,14.4-15.8,10.5-18.4,27.3-27.4,46.4-33.7,29-9.6,54.6-25.3,78-44.7,5.6-4.6,11.4-9.4,18-12.3,15.7-6.8,27-18.8,38.5-30.6,9.3-9.6,18.5-19.3,26.8-29.7,7.1-8.9,14-18.2,19.3-28.2,16.1-30.8,32.1-61.7,46.9-93.1,8.8-18.7,15.9-38.3,22.9-57.9,13.1-36.9,25-74.1,38.3-110.9,5.7-15.8,13.1-31.1,20.6-46.2,7.7-15.5,16.4-30.4,24.7-45.6,7.6-14,12.2-28.7,12.5-44.8.2-12.3.7-24.4-2-36.6-2.6-11.7-9.7-18.5-20.3-21.1-9.1-2.2-18.8-2.4-28.2-2.9-7.8-.5-15.6,0-23.5,0"/>
      <path class="st1" d="M754.7,358.5c-4.6.9-9.8.8-13.7,2.9-15.9,8.5-32,16.9-46.9,26.9-27.9,18.8-58.6,30.8-90.5,40.6-19.2,5.9-38.1,12.8-57.3,18.4-14.3,4.2-28.8,7.6-43.4,10.3-10.6,1.9-21.6,1.8-32.4,3-19.9,2.2-40.3,2.5-59.2,9.9-8.2,3.2-15.5,9.1-22.8,14.3-6.2,4.5-13.1,5.5-20.1,4.6-12-1.7-23.9-4.5-35.9-6.7-6.2-1.1-12.4-2.5-18.6-2.7-12-.4-23.1,9.8-24.8,21.9-.9,6.4-2.3,12.8-2.7,19.3-.8,13,3.2,23.9,14.3,31.8,6.1,4.4,13,8.3,13.4,17.8.3,6.5-1.4,14.2-7.2,16.4-13.8,5.4-25.8,13.9-38.1,21.9-3.8,2.5-10.4,1.5-15.6.9-6.1-.8-11.9-3.7-18-4.5-6.4-.8-12.4,1.2-16.5,6.7-2,2.7-4.2,5.3-5.5,8.3-5.6,13.4-17.1,19.6-29.8,23.1-8.4,2.3-12.9,7-16.5,14.1-4.2,8-4.2,15.9-1.3,24.2.6,1.6,1.1,3.4,2.1,4.8,9.8,14.8,1.1,28.4-2.9,42-4.1,13.5-9.5,26.4-19,37.4-7.4,8.6-7.9,19-5.2,30.3,3.9,15.9,6.7,32.1,8.9,48.2.8,5.7-1.6,11.9-2.5,17.9,0,.7,0,1.4,0,2.1,1.3,15.7,1,31.5,8.2,46.3,12,24.9,31.1,43.8,50.3,62.8,13.4,13.3,29.1,23.3,45.2,32.7,8.2,4.8,18.1,7.3,27.5,9.8,17.1,4.6,34.6,7.5,52.4,6.8,10.4-.4,20.7-3.8,31-3.6,11.5.2,20.8-4.7,30.3-9.4,7.7-3.9,16.1-7.8,21.9-13.9,13-13.7,26.5-27.5,36.4-43.5,12.6-20.6,25.5-41.4,33.6-64.5,8.3-23.9,16.6-47.8,24.9-71.7,2.2-6.5,5.2-12.7,6.8-19.3,3.6-15.5,13.3-24.8,27.7-30.4,7.8-3.1,15.3-7.1,22.8-11,8.9-4.6,15.3-12.3,21.3-20,6.6-8.5,14.9-12.5,25.6-13.1,27.1-1.5,50.8-11.3,70.3-30.3,6.7-6.5,10.5-14.9,12.9-23.5,3.5-12.1,10.3-19.8,22.2-24.3,7.9-3,14.8-8.5,22.2-12.8,2.1-1.2,4.6-2.8,6.9-2.7,13.9,1,24.1-6,33.9-14.6,3.3-2.9,7-5.8,11-7.5,15.4-6.4,24.9-18.1,32.5-32.5,19.3-36.7,37.4-73.9,50.8-113.2,2.7-8,3.9-16.5,5.6-24.8,1.1-5,2.6-10.1,2.6-15.2,0-20.1-4.5-38.7-22.8-50.1-6.3-3.9-14.4-6-21.9-6.9-18.1-2.1-36.3-3.1-54.5-4.3-9.6-.7-19.3-1-29-1.4"/>
    </g>
  </g>
</svg>